<mxfile host="Electron" modified="2023-10-11T06:12:39.966Z" agent="Mozilla/5.0 (Windows NT 10.0; Win64; x64) AppleWebKit/537.36 (KHTML, like Gecko) draw.io/22.0.2 Chrome/114.0.5735.289 Electron/25.8.4 Safari/537.36" etag="3YCQmFd_7_EG1YOZtkOH" version="22.0.2" type="device">
  <diagram name="Page-1" id="Zs-kTGDQ2TX8Q834MrS4">
    <mxGraphModel dx="928" dy="547" grid="1" gridSize="10" guides="1" tooltips="1" connect="1" arrows="1" fold="1" page="1" pageScale="1" pageWidth="850" pageHeight="1100" math="0" shadow="0">
      <root>
        <mxCell id="0" />
        <mxCell id="1" parent="0" />
        <mxCell id="tVe25JJXrX7TP5zpR2_T-1" value="" style="rounded=1;whiteSpace=wrap;html=1;" parent="1" vertex="1">
          <mxGeometry x="190" y="200" width="470" height="290" as="geometry" />
        </mxCell>
        <mxCell id="tVe25JJXrX7TP5zpR2_T-4" value="" style="group" parent="1" vertex="1" connectable="0">
          <mxGeometry x="30" y="250" width="120" height="60" as="geometry" />
        </mxCell>
        <mxCell id="tVe25JJXrX7TP5zpR2_T-2" value="" style="rounded=1;whiteSpace=wrap;html=1;" parent="tVe25JJXrX7TP5zpR2_T-4" vertex="1">
          <mxGeometry width="120" height="60" as="geometry" />
        </mxCell>
        <mxCell id="tVe25JJXrX7TP5zpR2_T-3" value="ADC" style="text;html=1;strokeColor=none;fillColor=none;align=center;verticalAlign=middle;whiteSpace=wrap;rounded=0;" parent="tVe25JJXrX7TP5zpR2_T-4" vertex="1">
          <mxGeometry x="30" y="15" width="60" height="30" as="geometry" />
        </mxCell>
        <mxCell id="tVe25JJXrX7TP5zpR2_T-9" value="" style="group" parent="1" vertex="1" connectable="0">
          <mxGeometry x="700" y="260" width="120" height="60" as="geometry" />
        </mxCell>
        <mxCell id="tVe25JJXrX7TP5zpR2_T-6" value="" style="rounded=1;whiteSpace=wrap;html=1;" parent="tVe25JJXrX7TP5zpR2_T-9" vertex="1">
          <mxGeometry width="120" height="60" as="geometry" />
        </mxCell>
        <mxCell id="tVe25JJXrX7TP5zpR2_T-8" value="DAC" style="text;html=1;strokeColor=none;fillColor=none;align=center;verticalAlign=middle;whiteSpace=wrap;rounded=0;" parent="tVe25JJXrX7TP5zpR2_T-9" vertex="1">
          <mxGeometry x="30" y="15" width="60" height="30" as="geometry" />
        </mxCell>
        <mxCell id="tVe25JJXrX7TP5zpR2_T-10" value="" style="endArrow=classic;html=1;rounded=0;exitX=1;exitY=0.5;exitDx=0;exitDy=0;" parent="1" source="tVe25JJXrX7TP5zpR2_T-2" edge="1">
          <mxGeometry width="50" height="50" relative="1" as="geometry">
            <mxPoint x="400" y="360" as="sourcePoint" />
            <mxPoint x="200" y="280" as="targetPoint" />
          </mxGeometry>
        </mxCell>
        <mxCell id="tVe25JJXrX7TP5zpR2_T-15" value="" style="group" parent="1" vertex="1" connectable="0">
          <mxGeometry x="200" y="265" width="90" height="30" as="geometry" />
        </mxCell>
        <mxCell id="tVe25JJXrX7TP5zpR2_T-12" value="" style="rounded=0;whiteSpace=wrap;html=1;" parent="tVe25JJXrX7TP5zpR2_T-15" vertex="1">
          <mxGeometry y="5" width="90" height="20" as="geometry" />
        </mxCell>
        <mxCell id="tVe25JJXrX7TP5zpR2_T-13" value="Serial Register" style="text;html=1;strokeColor=none;fillColor=none;align=center;verticalAlign=middle;whiteSpace=wrap;rounded=0;" parent="tVe25JJXrX7TP5zpR2_T-15" vertex="1">
          <mxGeometry x="2.5" width="85" height="30" as="geometry" />
        </mxCell>
        <mxCell id="tVe25JJXrX7TP5zpR2_T-16" value="" style="endArrow=classic;html=1;rounded=0;entryX=0;entryY=0.5;entryDx=0;entryDy=0;" parent="1" target="tVe25JJXrX7TP5zpR2_T-6" edge="1" source="0uwEz2iJApMcKScw88or-66">
          <mxGeometry width="50" height="50" relative="1" as="geometry">
            <mxPoint x="660" y="280" as="sourcePoint" />
            <mxPoint x="510" y="310" as="targetPoint" />
          </mxGeometry>
        </mxCell>
        <mxCell id="0uwEz2iJApMcKScw88or-3" value="" style="group" vertex="1" connectable="0" parent="1">
          <mxGeometry x="370" y="205" width="130" height="60" as="geometry" />
        </mxCell>
        <mxCell id="0uwEz2iJApMcKScw88or-5" value="" style="group" vertex="1" connectable="0" parent="0uwEz2iJApMcKScw88or-3">
          <mxGeometry width="130" height="60" as="geometry" />
        </mxCell>
        <mxCell id="0uwEz2iJApMcKScw88or-1" value="" style="rounded=0;whiteSpace=wrap;html=1;" vertex="1" parent="0uwEz2iJApMcKScw88or-5">
          <mxGeometry x="5" width="120" height="60" as="geometry" />
        </mxCell>
        <mxCell id="0uwEz2iJApMcKScw88or-2" value="Queue Memory" style="text;html=1;strokeColor=none;fillColor=none;align=center;verticalAlign=middle;whiteSpace=wrap;rounded=0;" vertex="1" parent="0uwEz2iJApMcKScw88or-5">
          <mxGeometry y="15" width="130" height="30" as="geometry" />
        </mxCell>
        <mxCell id="0uwEz2iJApMcKScw88or-15" value="&lt;font style=&quot;font-size: 4px;&quot;&gt;Loop Output&lt;/font&gt;" style="text;html=1;strokeColor=none;fillColor=none;align=center;verticalAlign=middle;whiteSpace=wrap;rounded=0;" vertex="1" parent="0uwEz2iJApMcKScw88or-5">
          <mxGeometry x="10" y="50" width="30" height="10" as="geometry" />
        </mxCell>
        <mxCell id="0uwEz2iJApMcKScw88or-4" value="" style="endArrow=classic;html=1;rounded=0;exitX=0.5;exitY=0;exitDx=0;exitDy=0;entryX=0;entryY=0;entryDx=0;entryDy=0;" edge="1" parent="1" source="0uwEz2iJApMcKScw88or-6" target="0uwEz2iJApMcKScw88or-2">
          <mxGeometry width="50" height="50" relative="1" as="geometry">
            <mxPoint x="390" y="370" as="sourcePoint" />
            <mxPoint x="440" y="320" as="targetPoint" />
            <Array as="points">
              <mxPoint x="360" y="260" />
              <mxPoint x="360" y="220" />
            </Array>
          </mxGeometry>
        </mxCell>
        <mxCell id="0uwEz2iJApMcKScw88or-7" value="" style="endArrow=classic;html=1;rounded=0;entryX=0.161;entryY=1.037;entryDx=0;entryDy=0;entryPerimeter=0;strokeColor=#CC0066;" edge="1" parent="1" target="0uwEz2iJApMcKScw88or-6">
          <mxGeometry width="50" height="50" relative="1" as="geometry">
            <mxPoint x="290" y="280" as="sourcePoint" />
            <mxPoint x="380" y="350" as="targetPoint" />
            <Array as="points">
              <mxPoint x="300" y="280" />
              <mxPoint x="300" y="240" />
            </Array>
          </mxGeometry>
        </mxCell>
        <mxCell id="0uwEz2iJApMcKScw88or-8" value="" style="endArrow=classic;html=1;rounded=0;exitX=0.75;exitY=1;exitDx=0;exitDy=0;" edge="1" parent="1" source="0uwEz2iJApMcKScw88or-11">
          <mxGeometry width="50" height="50" relative="1" as="geometry">
            <mxPoint x="380" y="310" as="sourcePoint" />
            <mxPoint x="330" y="280" as="targetPoint" />
            <Array as="points">
              <mxPoint x="398" y="310" />
              <mxPoint x="310" y="310" />
              <mxPoint x="310" y="280" />
            </Array>
          </mxGeometry>
        </mxCell>
        <mxCell id="0uwEz2iJApMcKScw88or-12" value="" style="group" vertex="1" connectable="0" parent="1">
          <mxGeometry x="380" y="280" width="80" height="50" as="geometry" />
        </mxCell>
        <mxCell id="0uwEz2iJApMcKScw88or-10" value="" style="rounded=0;whiteSpace=wrap;html=1;" vertex="1" parent="0uwEz2iJApMcKScw88or-12">
          <mxGeometry width="30" height="20" as="geometry" />
        </mxCell>
        <mxCell id="0uwEz2iJApMcKScw88or-11" value="reg" style="text;html=1;strokeColor=none;fillColor=none;align=center;verticalAlign=middle;whiteSpace=wrap;rounded=0;fontSize=9;" vertex="1" parent="0uwEz2iJApMcKScw88or-12">
          <mxGeometry x="10" width="10" height="20" as="geometry" />
        </mxCell>
        <mxCell id="0uwEz2iJApMcKScw88or-13" value="" style="endArrow=classic;html=1;rounded=0;exitX=0.19;exitY=1.017;exitDx=0;exitDy=0;exitPerimeter=0;entryX=0.593;entryY=-0.12;entryDx=0;entryDy=0;entryPerimeter=0;" edge="1" parent="1" source="0uwEz2iJApMcKScw88or-1" target="0uwEz2iJApMcKScw88or-10">
          <mxGeometry width="50" height="50" relative="1" as="geometry">
            <mxPoint x="450" y="320" as="sourcePoint" />
            <mxPoint x="500" y="270" as="targetPoint" />
          </mxGeometry>
        </mxCell>
        <mxCell id="0uwEz2iJApMcKScw88or-17" value="" style="group" vertex="1" connectable="0" parent="1">
          <mxGeometry x="325" y="230" width="30" height="60" as="geometry" />
        </mxCell>
        <mxCell id="0uwEz2iJApMcKScw88or-6" value="" style="shape=loopLimit;whiteSpace=wrap;html=1;rotation=90;" vertex="1" parent="0uwEz2iJApMcKScw88or-17">
          <mxGeometry x="-15" y="20" width="60" height="20" as="geometry" />
        </mxCell>
        <mxCell id="0uwEz2iJApMcKScw88or-16" value="&lt;font style=&quot;font-size: 7px;&quot;&gt;mux&lt;/font&gt;" style="text;html=1;strokeColor=none;fillColor=none;align=center;verticalAlign=middle;whiteSpace=wrap;rounded=0;" vertex="1" parent="0uwEz2iJApMcKScw88or-17">
          <mxGeometry y="25" width="30" height="10" as="geometry" />
        </mxCell>
        <mxCell id="0uwEz2iJApMcKScw88or-21" value="" style="group;rotation=90;" vertex="1" connectable="0" parent="1">
          <mxGeometry x="440" y="270" width="20" height="60" as="geometry" />
        </mxCell>
        <mxCell id="0uwEz2iJApMcKScw88or-19" value="" style="shape=loopLimit;whiteSpace=wrap;html=1;rotation=180;" vertex="1" parent="0uwEz2iJApMcKScw88or-21">
          <mxGeometry x="-20" y="20" width="60" height="20" as="geometry" />
        </mxCell>
        <mxCell id="0uwEz2iJApMcKScw88or-20" value="&lt;font style=&quot;font-size: 7px;&quot;&gt;mux&lt;/font&gt;" style="text;html=1;strokeColor=none;fillColor=none;align=center;verticalAlign=middle;whiteSpace=wrap;rounded=0;rotation=0;" vertex="1" parent="0uwEz2iJApMcKScw88or-21">
          <mxGeometry x="-5" y="25" width="30" height="10" as="geometry" />
        </mxCell>
        <mxCell id="0uwEz2iJApMcKScw88or-23" value="" style="endArrow=classic;html=1;rounded=0;entryX=0.81;entryY=0.99;entryDx=0;entryDy=0;entryPerimeter=0;exitX=0.47;exitY=0.99;exitDx=0;exitDy=0;exitPerimeter=0;" edge="1" parent="0uwEz2iJApMcKScw88or-21">
          <mxGeometry width="50" height="50" relative="1" as="geometry">
            <mxPoint x="30" y="-11" as="sourcePoint" />
            <mxPoint x="30" y="20" as="targetPoint" />
          </mxGeometry>
        </mxCell>
        <mxCell id="0uwEz2iJApMcKScw88or-22" value="" style="endArrow=classic;html=1;rounded=0;entryX=0.81;entryY=0.99;entryDx=0;entryDy=0;entryPerimeter=0;exitX=0.47;exitY=0.99;exitDx=0;exitDy=0;exitPerimeter=0;" edge="1" parent="1" source="0uwEz2iJApMcKScw88or-1" target="0uwEz2iJApMcKScw88or-19">
          <mxGeometry width="50" height="50" relative="1" as="geometry">
            <mxPoint x="431" y="270" as="sourcePoint" />
            <mxPoint x="430" y="290" as="targetPoint" />
          </mxGeometry>
        </mxCell>
        <mxCell id="0uwEz2iJApMcKScw88or-27" value="" style="endArrow=classic;html=1;rounded=0;entryX=0.638;entryY=1.022;entryDx=0;entryDy=0;entryPerimeter=0;exitX=0.55;exitY=1.01;exitDx=0;exitDy=0;exitPerimeter=0;" edge="1" parent="1" source="0uwEz2iJApMcKScw88or-1" target="0uwEz2iJApMcKScw88or-19">
          <mxGeometry width="50" height="50" relative="1" as="geometry">
            <mxPoint x="440" y="270" as="sourcePoint" />
            <mxPoint x="442.4" y="295.6" as="targetPoint" />
          </mxGeometry>
        </mxCell>
        <mxCell id="0uwEz2iJApMcKScw88or-28" value="" style="endArrow=classic;html=1;rounded=0;exitX=0.657;exitY=0.97;exitDx=0;exitDy=0;exitPerimeter=0;entryX=0.41;entryY=1.05;entryDx=0;entryDy=0;entryPerimeter=0;" edge="1" parent="1" source="0uwEz2iJApMcKScw88or-1" target="0uwEz2iJApMcKScw88or-19">
          <mxGeometry width="50" height="50" relative="1" as="geometry">
            <mxPoint x="451" y="276" as="sourcePoint" />
            <mxPoint x="454" y="290" as="targetPoint" />
          </mxGeometry>
        </mxCell>
        <mxCell id="0uwEz2iJApMcKScw88or-31" value="" style="group" vertex="1" connectable="0" parent="1">
          <mxGeometry x="520" y="217.5" width="60" height="35" as="geometry" />
        </mxCell>
        <mxCell id="0uwEz2iJApMcKScw88or-29" value="" style="rounded=0;whiteSpace=wrap;html=1;" vertex="1" parent="0uwEz2iJApMcKScw88or-31">
          <mxGeometry x="5" width="50" height="35" as="geometry" />
        </mxCell>
        <mxCell id="0uwEz2iJApMcKScw88or-30" value="Memory Conroller" style="text;html=1;strokeColor=none;fillColor=none;align=center;verticalAlign=middle;whiteSpace=wrap;rounded=0;" vertex="1" parent="0uwEz2iJApMcKScw88or-31">
          <mxGeometry y="5" width="60" height="25" as="geometry" />
        </mxCell>
        <mxCell id="0uwEz2iJApMcKScw88or-32" value="" style="endArrow=classic;html=1;rounded=0;exitX=0;exitY=0.5;exitDx=0;exitDy=0;entryX=1;entryY=0.5;entryDx=0;entryDy=0;" edge="1" parent="1" source="0uwEz2iJApMcKScw88or-30" target="0uwEz2iJApMcKScw88or-2">
          <mxGeometry width="50" height="50" relative="1" as="geometry">
            <mxPoint x="440" y="370" as="sourcePoint" />
            <mxPoint x="490" y="320" as="targetPoint" />
          </mxGeometry>
        </mxCell>
        <mxCell id="0uwEz2iJApMcKScw88or-38" value="" style="endArrow=classic;html=1;rounded=0;entryX=0.75;entryY=1;entryDx=0;entryDy=0;strokeColor=#CC0066;" edge="1" parent="1" target="0uwEz2iJApMcKScw88or-34">
          <mxGeometry width="50" height="50" relative="1" as="geometry">
            <mxPoint x="300" y="280" as="sourcePoint" />
            <mxPoint x="280" y="320" as="targetPoint" />
            <Array as="points">
              <mxPoint x="300" y="300" />
              <mxPoint x="255" y="300" />
            </Array>
          </mxGeometry>
        </mxCell>
        <mxCell id="0uwEz2iJApMcKScw88or-40" value="Function Block" style="text;html=1;strokeColor=default;fillColor=none;align=center;verticalAlign=middle;whiteSpace=wrap;rounded=0;spacingTop=0;labelBorderColor=none;perimeterSpacing=10;" vertex="1" parent="1">
          <mxGeometry x="230" y="390" width="60" height="30" as="geometry" />
        </mxCell>
        <mxCell id="0uwEz2iJApMcKScw88or-42" value="" style="endArrow=classic;html=1;rounded=0;exitX=0.5;exitY=1;exitDx=0;exitDy=0;entryX=0.638;entryY=0.22;entryDx=0;entryDy=0;entryPerimeter=0;" edge="1" parent="1" source="0uwEz2iJApMcKScw88or-35" target="0uwEz2iJApMcKScw88or-40">
          <mxGeometry width="50" height="50" relative="1" as="geometry">
            <mxPoint x="240" y="350" as="sourcePoint" />
            <mxPoint x="270" y="376" as="targetPoint" />
          </mxGeometry>
        </mxCell>
        <mxCell id="0uwEz2iJApMcKScw88or-51" value="" style="group;rotation=90;" vertex="1" connectable="0" parent="1">
          <mxGeometry x="560" y="270" width="60" height="20" as="geometry" />
        </mxCell>
        <mxCell id="0uwEz2iJApMcKScw88or-52" value="" style="shape=loopLimit;whiteSpace=wrap;html=1;rotation=180;direction=north;" vertex="1" parent="0uwEz2iJApMcKScw88or-51">
          <mxGeometry x="20" y="-20" width="20" height="60" as="geometry" />
        </mxCell>
        <mxCell id="0uwEz2iJApMcKScw88or-53" value="&lt;font style=&quot;font-size: 7px;&quot;&gt;mux&lt;/font&gt;" style="text;html=1;strokeColor=none;fillColor=none;align=center;verticalAlign=middle;whiteSpace=wrap;rounded=0;rotation=0;" vertex="1" parent="0uwEz2iJApMcKScw88or-51">
          <mxGeometry x="15" y="5" width="30" height="10" as="geometry" />
        </mxCell>
        <mxCell id="0uwEz2iJApMcKScw88or-54" value="" style="endArrow=classic;html=1;rounded=0;entryX=0.75;entryY=1;entryDx=0;entryDy=0;exitX=0.921;exitY=0.597;exitDx=0;exitDy=0;exitPerimeter=0;strokeColor=#005900;" edge="1" parent="1" source="0uwEz2iJApMcKScw88or-56" target="0uwEz2iJApMcKScw88or-52">
          <mxGeometry width="50" height="50" relative="1" as="geometry">
            <mxPoint x="420" y="390" as="sourcePoint" />
            <mxPoint x="470" y="340" as="targetPoint" />
            <Array as="points">
              <mxPoint x="570" y="354" />
              <mxPoint x="570" y="295" />
            </Array>
          </mxGeometry>
        </mxCell>
        <mxCell id="0uwEz2iJApMcKScw88or-56" value="reg" style="text;html=1;strokeColor=default;fillColor=none;align=center;verticalAlign=middle;whiteSpace=wrap;rounded=0;spacingTop=0;labelBorderColor=none;perimeterSpacing=10;" vertex="1" parent="1">
          <mxGeometry x="480" y="340" width="40" height="20" as="geometry" />
        </mxCell>
        <mxCell id="0uwEz2iJApMcKScw88or-57" value="" style="endArrow=classic;html=1;rounded=0;entryX=0.25;entryY=1;entryDx=0;entryDy=0;exitX=0.702;exitY=0.87;exitDx=0;exitDy=0;exitPerimeter=0;strokeColor=#00009C;" edge="1" parent="1" source="0uwEz2iJApMcKScw88or-40" target="0uwEz2iJApMcKScw88or-52">
          <mxGeometry width="50" height="50" relative="1" as="geometry">
            <mxPoint x="460" y="440" as="sourcePoint" />
            <mxPoint x="510" y="390" as="targetPoint" />
            <Array as="points">
              <mxPoint x="276" y="440" />
              <mxPoint x="560" y="440" />
              <mxPoint x="560" y="265" />
            </Array>
          </mxGeometry>
        </mxCell>
        <mxCell id="0uwEz2iJApMcKScw88or-59" value="Control" style="text;html=1;strokeColor=default;fillColor=none;align=center;verticalAlign=middle;whiteSpace=wrap;rounded=0;spacingTop=0;labelBorderColor=none;perimeterSpacing=10;" vertex="1" parent="1">
          <mxGeometry x="500" y="450" width="70" height="30" as="geometry" />
        </mxCell>
        <mxCell id="0uwEz2iJApMcKScw88or-66" value="Serial Register" style="text;html=1;strokeColor=none;fillColor=none;align=center;verticalAlign=middle;whiteSpace=wrap;rounded=0;labelBorderColor=default;rotation=90;" vertex="1" parent="1">
          <mxGeometry x="590" y="275" width="85" height="30" as="geometry" />
        </mxCell>
        <mxCell id="0uwEz2iJApMcKScw88or-67" value="" style="endArrow=classic;html=1;rounded=0;exitX=1;exitY=0.25;exitDx=0;exitDy=0;entryX=0.352;entryY=0.985;entryDx=0;entryDy=0;entryPerimeter=0;" edge="1" parent="1" source="0uwEz2iJApMcKScw88or-53" target="0uwEz2iJApMcKScw88or-66">
          <mxGeometry width="50" height="50" relative="1" as="geometry">
            <mxPoint x="460" y="440" as="sourcePoint" />
            <mxPoint x="510" y="390" as="targetPoint" />
          </mxGeometry>
        </mxCell>
        <mxCell id="0uwEz2iJApMcKScw88or-68" value="" style="shape=trapezoid;perimeter=trapezoidPerimeter;whiteSpace=wrap;html=1;fixedSize=1;direction=south;" vertex="1" parent="1">
          <mxGeometry x="425" y="335" width="20" height="80" as="geometry" />
        </mxCell>
        <mxCell id="0uwEz2iJApMcKScw88or-69" value="" style="endArrow=classic;html=1;rounded=0;entryX=0.75;entryY=1;entryDx=0;entryDy=0;strokeColor=#005900;" edge="1" parent="1" target="0uwEz2iJApMcKScw88or-68">
          <mxGeometry width="50" height="50" relative="1" as="geometry">
            <mxPoint x="570" y="350" as="sourcePoint" />
            <mxPoint x="530" y="360" as="targetPoint" />
            <Array as="points">
              <mxPoint x="570" y="420" />
              <mxPoint x="420" y="420" />
              <mxPoint x="330" y="420" />
              <mxPoint x="330" y="395" />
            </Array>
          </mxGeometry>
        </mxCell>
        <mxCell id="0uwEz2iJApMcKScw88or-70" value="" style="endArrow=classic;html=1;rounded=0;entryX=0.128;entryY=0.55;entryDx=0;entryDy=0;entryPerimeter=0;exitX=0.561;exitY=-0.042;exitDx=0;exitDy=0;exitPerimeter=0;" edge="1" parent="1" source="0uwEz2iJApMcKScw88or-68" target="0uwEz2iJApMcKScw88or-56">
          <mxGeometry width="50" height="50" relative="1" as="geometry">
            <mxPoint x="410" y="400" as="sourcePoint" />
            <mxPoint x="460" y="350" as="targetPoint" />
            <Array as="points">
              <mxPoint x="460" y="380" />
              <mxPoint x="460" y="352" />
            </Array>
          </mxGeometry>
        </mxCell>
        <mxCell id="0uwEz2iJApMcKScw88or-71" value="" style="group" vertex="1" connectable="0" parent="1">
          <mxGeometry x="310" y="330" width="60" height="20.000000000000004" as="geometry" />
        </mxCell>
        <mxCell id="0uwEz2iJApMcKScw88or-37" value="" style="group" vertex="1" connectable="0" parent="1">
          <mxGeometry x="240" y="350" width="60" height="20" as="geometry" />
        </mxCell>
        <mxCell id="0uwEz2iJApMcKScw88or-34" value="" style="shape=loopLimit;whiteSpace=wrap;html=1;rotation=180;" vertex="1" parent="0uwEz2iJApMcKScw88or-37">
          <mxGeometry width="60" height="20" as="geometry" />
        </mxCell>
        <mxCell id="0uwEz2iJApMcKScw88or-35" value="&lt;font style=&quot;font-size: 7px;&quot;&gt;mux&lt;/font&gt;" style="text;html=1;strokeColor=none;fillColor=none;align=center;verticalAlign=middle;whiteSpace=wrap;rounded=0;rotation=0;" vertex="1" parent="0uwEz2iJApMcKScw88or-37">
          <mxGeometry x="15" y="5" width="30" height="10" as="geometry" />
        </mxCell>
        <mxCell id="0uwEz2iJApMcKScw88or-74" value="" style="endArrow=classic;html=1;rounded=0;entryX=0.36;entryY=1.136;entryDx=0;entryDy=0;entryPerimeter=0;strokeColor=#005900;" edge="1" parent="1" target="0uwEz2iJApMcKScw88or-34">
          <mxGeometry width="50" height="50" relative="1" as="geometry">
            <mxPoint x="330" y="420" as="sourcePoint" />
            <mxPoint x="420" y="350" as="targetPoint" />
            <Array as="points">
              <mxPoint x="300" y="420" />
              <mxPoint x="300" y="330" />
              <mxPoint x="280" y="330" />
            </Array>
          </mxGeometry>
        </mxCell>
        <mxCell id="0uwEz2iJApMcKScw88or-75" value="" style="endArrow=classic;html=1;rounded=0;exitX=0.5;exitY=0;exitDx=0;exitDy=0;entryX=0.25;entryY=1;entryDx=0;entryDy=0;" edge="1" parent="1" source="0uwEz2iJApMcKScw88or-72" target="0uwEz2iJApMcKScw88or-68">
          <mxGeometry width="50" height="50" relative="1" as="geometry">
            <mxPoint x="370" y="400" as="sourcePoint" />
            <mxPoint x="420" y="350" as="targetPoint" />
            <Array as="points">
              <mxPoint x="400" y="355" />
            </Array>
          </mxGeometry>
        </mxCell>
        <mxCell id="0uwEz2iJApMcKScw88or-72" value="" style="shape=loopLimit;whiteSpace=wrap;html=1;rotation=-180;direction=north;" vertex="1" parent="1">
          <mxGeometry x="390" y="330" width="20" height="60" as="geometry" />
        </mxCell>
        <mxCell id="0uwEz2iJApMcKScw88or-81" value="" style="endArrow=classic;html=1;rounded=0;entryX=0.179;entryY=1.02;entryDx=0;entryDy=0;entryPerimeter=0;exitX=0.5;exitY=0;exitDx=0;exitDy=0;" edge="1" parent="1" source="0uwEz2iJApMcKScw88or-19" target="0uwEz2iJApMcKScw88or-72">
          <mxGeometry width="50" height="50" relative="1" as="geometry">
            <mxPoint x="360" y="360" as="sourcePoint" />
            <mxPoint x="410" y="310" as="targetPoint" />
            <Array as="points">
              <mxPoint x="450" y="320" />
              <mxPoint x="380" y="320" />
              <mxPoint x="380" y="340" />
            </Array>
          </mxGeometry>
        </mxCell>
        <mxCell id="0uwEz2iJApMcKScw88or-82" value="" style="shape=loopLimit;whiteSpace=wrap;html=1;rotation=-180;direction=north;" vertex="1" parent="1">
          <mxGeometry x="355" y="330" width="20" height="60" as="geometry" />
        </mxCell>
        <mxCell id="0uwEz2iJApMcKScw88or-84" value="" style="endArrow=classic;html=1;rounded=0;exitX=0.466;exitY=-0.009;exitDx=0;exitDy=0;exitPerimeter=0;entryX=0.683;entryY=0.962;entryDx=0;entryDy=0;entryPerimeter=0;" edge="1" parent="1" source="0uwEz2iJApMcKScw88or-82" target="0uwEz2iJApMcKScw88or-72">
          <mxGeometry width="50" height="50" relative="1" as="geometry">
            <mxPoint x="360" y="360" as="sourcePoint" />
            <mxPoint x="410" y="310" as="targetPoint" />
            <Array as="points">
              <mxPoint x="380" y="360" />
              <mxPoint x="380" y="370" />
            </Array>
          </mxGeometry>
        </mxCell>
        <mxCell id="0uwEz2iJApMcKScw88or-85" value="" style="endArrow=classic;html=1;rounded=0;entryX=0.694;entryY=0.936;entryDx=0;entryDy=0;entryPerimeter=0;strokeColor=#00009C;" edge="1" parent="1" target="0uwEz2iJApMcKScw88or-82">
          <mxGeometry width="50" height="50" relative="1" as="geometry">
            <mxPoint x="320" y="440" as="sourcePoint" />
            <mxPoint x="390" y="330" as="targetPoint" />
            <Array as="points">
              <mxPoint x="320" y="372" />
            </Array>
          </mxGeometry>
        </mxCell>
        <mxCell id="0uwEz2iJApMcKScw88or-86" value="" style="endArrow=classic;html=1;rounded=0;entryX=0.25;entryY=1;entryDx=0;entryDy=0;fontColor=#67AB9F;strokeColor=#CC0066;" edge="1" parent="1" target="0uwEz2iJApMcKScw88or-82">
          <mxGeometry width="50" height="50" relative="1" as="geometry">
            <mxPoint x="300" y="300" as="sourcePoint" />
            <mxPoint x="410" y="320" as="targetPoint" />
            <Array as="points">
              <mxPoint x="300" y="320" />
              <mxPoint x="320" y="320" />
              <mxPoint x="320" y="345" />
            </Array>
          </mxGeometry>
        </mxCell>
        <mxCell id="0uwEz2iJApMcKScw88or-87" value="&lt;font style=&quot;font-size: 7px;&quot;&gt;mux&lt;/font&gt;" style="text;html=1;strokeColor=none;fillColor=none;align=center;verticalAlign=middle;whiteSpace=wrap;rounded=0;rotation=0;" vertex="1" parent="1">
          <mxGeometry x="350" y="355" width="30" height="10" as="geometry" />
        </mxCell>
        <mxCell id="0uwEz2iJApMcKScw88or-88" value="&lt;font style=&quot;font-size: 7px;&quot;&gt;mux&lt;/font&gt;" style="text;html=1;strokeColor=none;fillColor=none;align=center;verticalAlign=middle;whiteSpace=wrap;rounded=0;rotation=0;" vertex="1" parent="1">
          <mxGeometry x="385" y="355" width="30" height="10" as="geometry" />
        </mxCell>
        <mxCell id="0uwEz2iJApMcKScw88or-89" value="&lt;font style=&quot;font-size: 8px;&quot;&gt;ALU&lt;/font&gt;" style="text;html=1;strokeColor=none;fillColor=none;align=center;verticalAlign=middle;whiteSpace=wrap;rounded=0;" vertex="1" parent="1">
          <mxGeometry x="405" y="360" width="60" height="30" as="geometry" />
        </mxCell>
        <mxCell id="0uwEz2iJApMcKScw88or-90" value="Function Memory" style="rounded=0;whiteSpace=wrap;html=1;" vertex="1" parent="1">
          <mxGeometry x="210" y="430" width="60" height="40" as="geometry" />
        </mxCell>
        <mxCell id="0uwEz2iJApMcKScw88or-91" value="" style="endArrow=none;html=1;rounded=0;exitX=0.25;exitY=0;exitDx=0;exitDy=0;entryX=0.131;entryY=0.589;entryDx=0;entryDy=0;entryPerimeter=0;" edge="1" parent="1" source="0uwEz2iJApMcKScw88or-90" target="0uwEz2iJApMcKScw88or-40">
          <mxGeometry width="50" height="50" relative="1" as="geometry">
            <mxPoint x="450" y="390" as="sourcePoint" />
            <mxPoint x="500" y="340" as="targetPoint" />
            <Array as="points">
              <mxPoint x="225" y="410" />
            </Array>
          </mxGeometry>
        </mxCell>
      </root>
    </mxGraphModel>
  </diagram>
</mxfile>
